<svg width="40" height="40" viewBox="0 0 40 40" fill="none" xmlns="http://www.w3.org/2000/svg">
<rect x="0.5" y="0.5" width="39" height="39" rx="6.5" stroke="#4F46E5"/>
<rect x="4" y="4" width="32" height="32" rx="4" fill="white"/>
<path fill-rule="evenodd" clip-rule="evenodd" d="M9.32281 9.32269C9.8171 8.82842 10.4908 8.5824 11.2174 8.5824H20.0001C20.7267 8.5824 21.4004 8.82842 21.8947 9.32269C22.3889 9.81698 22.635 10.4907 22.635 11.2172V28.7828C22.635 29.5093 22.3889 30.1831 21.8947 30.6774C21.4004 31.1715 20.7267 31.4176 20.0001 31.4176H11.2174C10.4908 31.4176 9.8171 31.1715 9.32281 30.6774C8.82854 30.1831 8.58252 29.5093 8.58252 28.7828V11.2172C8.58252 10.4907 8.82854 9.81698 9.32281 9.32269ZM28.1242 11.2241C28.4132 11.2241 28.6837 11.3662 28.8476 11.6041L31.2628 15.1104C31.3637 15.2569 31.4178 15.4307 31.4178 15.6086V28.7828C31.4178 29.5093 31.1717 30.1831 30.6775 30.6774C30.1832 31.1715 29.5094 31.4176 28.7829 31.4176H27.4655C26.739 31.4176 26.0652 31.1715 25.5709 30.6774C25.0767 30.1831 24.8307 29.5093 24.8307 28.7828V15.6086C24.8307 15.4307 24.8847 15.2569 24.9857 15.1104L27.4009 11.6041C27.5647 11.3662 27.8353 11.2241 28.1242 11.2241ZM17.1457 14.3791C17.1457 13.5303 16.4576 12.8421 15.6087 12.8421C14.7599 12.8421 14.0718 13.5303 14.0718 14.3791C14.0718 15.228 14.7599 15.9161 15.6087 15.9161C16.4576 15.9161 17.1457 15.228 17.1457 14.3791Z" fill="#251D4E"/>
</svg>
