<svg width="40" height="40" viewBox="0 0 40 40" fill="none" xmlns="http://www.w3.org/2000/svg">
<rect x="0.5" y="0.5" width="39" height="39" rx="6.5" stroke="#4F46E5"/>
<rect x="4" y="4" width="32" height="32" rx="4" fill="url(#paint0_linear_1410_12231)"/>
<path fill-rule="evenodd" clip-rule="evenodd" d="M20 32C26.6274 32 32 26.6274 32 20C32 13.3726 26.6274 8 20 8C13.3726 8 8 13.3726 8 20C8 26.6274 13.3726 32 20 32ZM14.2143 17.4286C14.2143 16.8368 14.694 16.3571 15.2857 16.3571H24.7143C25.3061 16.3571 25.7857 16.8368 25.7857 17.4286C25.7857 18.0203 25.3061 18.5 24.7143 18.5H15.2857C14.694 18.5 14.2143 18.0203 14.2143 17.4286ZM14.2143 22.5714C14.2143 21.9797 14.694 21.5 15.2857 21.5H24.7143C25.3061 21.5 25.7857 21.9797 25.7857 22.5714C25.7857 23.1632 25.3061 23.6429 24.7143 23.6429H15.2857C14.694 23.6429 14.2143 23.1632 14.2143 22.5714Z" fill="white"/>
<defs>
<linearGradient id="paint0_linear_1410_12231" x1="20" y1="4" x2="20" y2="36" gradientUnits="userSpaceOnUse">
<stop stop-color="#B56DF4"/>
<stop offset="1" stop-color="#6E01CB"/>
</linearGradient>
</defs>
</svg>
