<svg width="40" height="40" viewBox="0 0 40 40" fill="none" xmlns="http://www.w3.org/2000/svg">
<rect x="0.5" y="0.5" width="39" height="39" rx="6.5" stroke="#4F46E5"/>
<rect x="4" y="4" width="32" height="32" rx="4" fill="url(#paint0_linear_1410_12243)"/>
<path fill-rule="evenodd" clip-rule="evenodd" d="M20 8C20.7101 8 21.2857 8.57563 21.2857 9.28571V10.6584C25.4643 11.2281 28.7718 14.5356 29.3417 18.7143H30.7143C31.4243 18.7143 32 19.2899 32 20C32 20.7101 31.4243 21.2857 30.7143 21.2857H29.3417C28.7718 25.4643 25.4643 28.7718 21.2857 29.3417V30.7143C21.2857 31.4243 20.7101 32 20 32C19.2899 32 18.7143 31.4243 18.7143 30.7143V29.3417C14.5356 28.7718 11.2281 25.4643 10.6584 21.2857H9.28571C8.57563 21.2857 8 20.7101 8 20C8 19.2899 8.57563 18.7143 9.28571 18.7143H10.6584C11.2281 14.5356 14.5356 11.2281 18.7143 10.6584V9.28571C18.7143 8.57563 19.2899 8 20 8ZM20 13.1429C16.2129 13.1429 13.1429 16.2129 13.1429 20C13.1429 21.9208 13.9326 23.6572 15.2052 24.902C16.3023 23.4724 18.0452 22.5532 19.9999 22.5532C21.9547 22.5532 23.6976 23.4724 24.7948 24.9021C26.0674 23.6572 26.8571 21.9208 26.8571 20C26.8571 16.2129 23.7871 13.1429 20 13.1429ZM17 18.4464C17 20.1033 18.3431 21.4464 20 21.4464C20.4189 21.4464 20.8177 21.3606 21.1798 21.2055C22.2501 20.7473 23 19.6844 23 18.4464C23 16.7896 21.6569 15.4464 20 15.4464C18.3431 15.4464 17 16.7896 17 18.4464Z" fill="white"/>
<defs>
<linearGradient id="paint0_linear_1410_12243" x1="20" y1="4" x2="20" y2="36" gradientUnits="userSpaceOnUse">
<stop stop-color="#F4AE6D"/>
<stop offset="1" stop-color="#CB5601"/>
</linearGradient>
</defs>
</svg>
