<svg width="40" height="40" viewBox="0 0 40 40" fill="none" xmlns="http://www.w3.org/2000/svg">
<rect x="0.5" y="0.5" width="39" height="39" rx="6.5" stroke="#4F46E5"/>
<rect x="4" y="4" width="32" height="32" rx="4" fill="url(#paint0_linear_1410_12253)"/>
<path fill-rule="evenodd" clip-rule="evenodd" d="M10 18.2857C10 12.6051 14.6051 8 20.2857 8C25.9663 8 30.5714 12.6051 30.5714 18.2857C30.5714 21.6238 28.6537 24.6798 26.6553 26.9773C24.6371 29.2978 22.4143 30.9841 21.5617 31.5961C21.1779 31.8716 20.7303 32 20.2857 32C19.8411 32 19.3935 31.8716 19.0097 31.5961C18.1571 30.9841 15.9343 29.2978 13.9161 26.9773C11.9178 24.6798 10 21.6238 10 18.2857ZM25.6 16.4857C26.026 15.9177 25.911 15.1118 25.3429 14.6857C24.7748 14.2597 23.9689 14.3748 23.5429 14.9429L19.2895 20.614L17.7663 19.0909C17.2642 18.5887 16.4501 18.5888 15.948 19.0909C15.4459 19.593 15.4459 20.407 15.948 20.9091L18.5194 23.4805C18.783 23.7441 19.1479 23.8803 19.5197 23.8539C19.8915 23.8275 20.2335 23.641 20.4571 23.3428L25.6 16.4857Z" fill="white"/>
<defs>
<linearGradient id="paint0_linear_1410_12253" x1="20" y1="4" x2="20" y2="36" gradientUnits="userSpaceOnUse">
<stop stop-color="#8C8C8C"/>
<stop offset="1" stop-color="#0E0703"/>
</linearGradient>
</defs>
</svg>
