<?xml version="1.0" encoding="UTF-8"?>
<svg xmlns="http://www.w3.org/2000/svg" viewBox="0 0 30.24 19.77">
  <g>
    <path fill="#fff"
      d="M10.86,6.14H6.28v-1.41c0-.66-.06-1.07-.18-1.25s-.31-.27-.59-.27c-.3,0-.52,.12-.67,.36-.15,.24-.23,.61-.23,1.1,0,.63,.09,1.11,.26,1.43,.16,.32,.63,.71,1.39,1.16,2.2,1.3,3.58,2.37,4.15,3.21s.86,2.18,.86,4.04c0,1.35-.16,2.35-.47,2.99s-.93,1.18-1.83,1.61-1.96,.65-3.16,.65c-1.32,0-2.45-.25-3.38-.75s-1.54-1.14-1.83-1.91-.43-1.87-.43-3.29v-1.24H4.73v2.31c0,.71,.06,1.17,.19,1.37s.36,.3,.69,.3,.57-.13,.73-.39,.24-.64,.24-1.15c0-1.12-.15-1.85-.46-2.19-.31-.34-1.08-.92-2.31-1.72-1.23-.81-2.04-1.4-2.44-1.77s-.73-.88-.99-1.52-.39-1.48-.39-2.48c0-1.45,.19-2.52,.56-3.19S1.53,.95,2.36,.57s1.83-.57,3-.57c1.28,0,2.37,.21,3.28,.62s1.5,.94,1.79,1.56,.44,1.7,.44,3.21v.75Z" />
    <path fill="#fff"
      d="M24.74,11.51c0,1.91-.04,3.26-.13,4.05s-.37,1.52-.84,2.17-1.11,1.16-1.92,1.51-1.74,.53-2.81,.53-1.93-.17-2.74-.5-1.46-.83-1.95-1.49-.79-1.39-.88-2.17-.14-2.15-.14-4.1v-3.25c0-1.91,.04-3.26,.13-4.05s.37-1.52,.84-2.17,1.11-1.16,1.92-1.51,1.74-.53,2.81-.53,1.93,.17,2.74,.5,1.46,.83,1.95,1.49,.79,1.39,.88,2.17,.14,2.15,.14,4.1v3.25Zm-4.93-6.23c0-.88-.05-1.45-.15-1.69s-.3-.37-.6-.37c-.26,0-.46,.1-.59,.3s-.21,.79-.21,1.76V14.13c0,1.1,.04,1.78,.13,2.04s.3,.39,.63,.39,.55-.15,.64-.45,.14-1,.14-2.12V5.27Z" />
    <path d="M30.24,15.5v3.87h-3.57v-3.87h3.57Z" fill="#fff" />
  </g>
</svg>